<svg version="1.1" xmlns="http://www.w3.org/2000/svg" xmlns:xlink="http://www.w3.org/1999/xlink" viewBox="0 0 30 30">
<path d="M11.25 27.188c0 1.553-1.259 2.813-2.813 2.813s-2.813-1.259-2.813-2.813c0-1.553 1.259-2.813 2.813-2.813s2.813 1.259 2.813 2.813z"></path>
<path d="M30 27.188c0 1.553-1.259 2.813-2.813 2.813s-2.813-1.259-2.813-2.813c0-1.553 1.259-2.813 2.813-2.813s2.813 1.259 2.813 2.813z"></path>
<path d="M30 15v-11.25h-22.5c0-1.036-0.839-1.875-1.875-1.875h-5.625v1.875h3.75l1.408 12.072c-0.858 0.687-1.408 1.743-1.408 2.928 0 2.071 1.679 3.75 3.75 3.75h22.5v-1.875h-22.5c-1.036 0-1.875-0.839-1.875-1.875 0-0.006 0-0.013 0-0.019l24.375-3.731z"></path>
</svg>
