<svg version="1.1" xmlns="http://www.w3.org/2000/svg" xmlns:xlink="http://www.w3.org/1999/xlink" viewBox="0 0 134 32">
<path d="M9.524 11.848c-0.467-0.476-1.019-0.829-1.657-1.067s-1.324-0.352-2.067-0.352h-4.952v11.486h4.952c0.876 0 1.648-0.143 2.295-0.438s1.19-0.705 1.629-1.219c0.438-0.514 0.762-1.124 0.971-1.838 0.219-0.705 0.324-1.476 0.324-2.314 0-0.952-0.133-1.79-0.39-2.495-0.267-0.705-0.638-1.295-1.105-1.762zM8.248 17.962c-0.162 0.438-0.371 0.8-0.648 1.067-0.267 0.276-0.571 0.467-0.914 0.59-0.343 0.114-0.695 0.181-1.067 0.181h-2.248v-7.238h1.8c0.619 0 1.143 0.086 1.571 0.267 0.419 0.181 0.762 0.429 1.019 0.762s0.438 0.733 0.552 1.2c0.114 0.467 0.171 0.99 0.171 1.571 0 0.619-0.076 1.162-0.238 1.6z"></path>
<path d="M20.476 15.676c0.514-0.248 0.905-0.562 1.171-0.952s0.39-0.867 0.39-1.448c0-0.533-0.086-0.99-0.267-1.352s-0.429-0.657-0.752-0.876c-0.324-0.219-0.705-0.381-1.162-0.476-0.448-0.095-0.952-0.143-1.495-0.143h-5.41v11.486h5.571c0.514 0 1.019-0.067 1.505-0.19 0.486-0.133 0.924-0.324 1.305-0.6 0.381-0.267 0.686-0.61 0.905-1.038 0.229-0.419 0.333-0.924 0.333-1.505 0-0.714-0.171-1.333-0.524-1.838-0.333-0.505-0.867-0.867-1.571-1.067zM15.486 12.39h2.362c0.229 0 0.438 0.019 0.648 0.057s0.39 0.105 0.552 0.2c0.162 0.095 0.286 0.229 0.39 0.4 0.095 0.171 0.143 0.39 0.143 0.657 0 0.486-0.143 0.829-0.438 1.048-0.286 0.219-0.657 0.324-1.114 0.324h-2.562v-2.686zM19.905 19.181c-0.105 0.19-0.238 0.343-0.41 0.457s-0.371 0.19-0.6 0.238c-0.229 0.048-0.457 0.076-0.705 0.076h-2.705v-3.152h2.752c0.543 0 0.99 0.124 1.324 0.381 0.333 0.248 0.495 0.676 0.495 1.267 0 0.295-0.057 0.543-0.152 0.733z"></path>
<path d="M32.629 15.933c-0.371-0.248-0.752-0.429-1.133-0.543s-0.676-0.19-0.895-0.238c-0.714-0.181-1.305-0.333-1.743-0.448-0.448-0.114-0.79-0.238-1.048-0.352-0.248-0.114-0.419-0.248-0.505-0.39s-0.133-0.324-0.133-0.543c0-0.248 0.057-0.448 0.162-0.61s0.248-0.295 0.41-0.4c0.162-0.105 0.352-0.181 0.552-0.229 0.2-0.038 0.41-0.067 0.61-0.067 0.314 0 0.6 0.029 0.857 0.076 0.267 0.057 0.495 0.143 0.705 0.276 0.2 0.133 0.371 0.305 0.495 0.533s0.2 0.514 0.219 0.857h2.448c0-0.667-0.124-1.229-0.381-1.695-0.248-0.467-0.59-0.848-1.019-1.152s-0.924-0.514-1.476-0.648c-0.552-0.133-1.133-0.2-1.733-0.2-0.514 0-1.029 0.067-1.543 0.21s-0.981 0.352-1.381 0.648c-0.41 0.286-0.733 0.648-0.99 1.086-0.248 0.438-0.381 0.943-0.381 1.533 0 0.524 0.095 0.971 0.295 1.343s0.457 0.676 0.781 0.924c0.324 0.248 0.686 0.448 1.095 0.6s0.829 0.286 1.257 0.39c0.419 0.114 0.829 0.229 1.238 0.324s0.771 0.21 1.095 0.333c0.324 0.133 0.581 0.286 0.781 0.486 0.2 0.19 0.295 0.448 0.295 0.752 0 0.286-0.076 0.533-0.229 0.714-0.152 0.19-0.333 0.333-0.562 0.438s-0.467 0.181-0.724 0.219c-0.257 0.038-0.495 0.057-0.724 0.057-0.333 0-0.657-0.038-0.962-0.124-0.314-0.076-0.581-0.2-0.81-0.371-0.229-0.162-0.419-0.381-0.552-0.648-0.143-0.267-0.21-0.6-0.21-0.981h-2.448c-0.010 0.705 0.114 1.324 0.39 1.838 0.267 0.514 0.629 0.943 1.086 1.267 0.457 0.333 0.981 0.581 1.581 0.733s1.21 0.229 1.838 0.229c0.781 0 1.476-0.095 2.067-0.276 0.6-0.181 1.095-0.438 1.495-0.762s0.705-0.714 0.905-1.171c0.2-0.448 0.305-0.943 0.305-1.467 0-0.648-0.133-1.171-0.41-1.581-0.267-0.39-0.6-0.724-0.971-0.971z"></path>
<path d="M59.714 10.152h1.2v11.781h-1.2v-11.781z"></path>
<path d="M66.857 13.952c-0.257 0-0.514 0.038-0.771 0.105-0.257 0.076-0.505 0.171-0.743 0.295-0.229 0.124-0.448 0.276-0.629 0.457-0.19 0.181-0.343 0.371-0.467 0.581h-0.029c0-0.21 0-0.419-0.010-0.619-0.010-0.21-0.019-0.41-0.038-0.629h-1.133c0.019 0.286 0.038 0.59 0.057 0.914s0.029 0.59 0.029 0.8v6.076h1.095v-3.99c0-0.714 0.114-1.267 0.333-1.667s0.476-0.695 0.752-0.895c0.286-0.2 0.552-0.324 0.81-0.362 0.257-0.048 0.41-0.067 0.467-0.067 0.81 0 1.362 0.229 1.667 0.686 0.295 0.457 0.448 1.124 0.448 1.99v4.305h1.095v-4.943c0-0.971-0.238-1.724-0.714-2.257-0.486-0.524-1.219-0.781-2.219-0.781z"></path>
<path d="M75.6 21.048c-0.2 0.057-0.39 0.086-0.581 0.086-0.162 0-0.314-0.019-0.457-0.057s-0.257-0.105-0.362-0.21c-0.095-0.095-0.181-0.238-0.229-0.429-0.057-0.181-0.086-0.419-0.086-0.705v-4.59h2.248v-1h-2.248v-2.2h-1.095v2.2h-1.648v1h1.648v4.905c0 0.429 0.057 0.781 0.181 1.048s0.276 0.476 0.467 0.629c0.19 0.152 0.4 0.257 0.619 0.314 0.229 0.057 0.448 0.086 0.657 0.086 0.581 0 1.067-0.095 1.476-0.286l-0.048-1.019c-0.162 0.105-0.343 0.181-0.543 0.229z"></path>
<path d="M83.99 15.105c-0.314-0.352-0.705-0.629-1.171-0.838s-0.99-0.314-1.581-0.314c-0.552 0-1.067 0.105-1.543 0.305-0.476 0.21-0.895 0.495-1.248 0.857s-0.629 0.8-0.829 1.295c-0.2 0.495-0.295 1.038-0.295 1.629s0.105 1.133 0.305 1.629c0.21 0.495 0.486 0.933 0.838 1.295s0.781 0.648 1.276 0.857c0.495 0.21 1.029 0.305 1.61 0.305 0.648 0 1.248-0.124 1.81-0.381s1.076-0.676 1.543-1.267l-0.848-0.695c-0.219 0.352-0.543 0.667-0.971 0.943s-0.933 0.41-1.524 0.41c-0.39 0-0.752-0.076-1.086-0.219s-0.629-0.343-0.886-0.59c-0.257-0.248-0.457-0.543-0.619-0.886-0.152-0.343-0.248-0.714-0.286-1.095h6.486v-0.495c0-0.533-0.086-1.038-0.248-1.505-0.181-0.476-0.419-0.886-0.733-1.238zM78.505 17.438c0-0.324 0.076-0.629 0.229-0.933 0.152-0.295 0.352-0.562 0.6-0.8 0.248-0.229 0.543-0.419 0.876-0.562s0.676-0.21 1.029-0.21c0.8 0 1.419 0.229 1.867 0.686s0.667 1.067 0.667 1.81h-5.267z"></path>
<path d="M89.524 14.086c-0.276 0.095-0.514 0.219-0.714 0.371-0.21 0.152-0.381 0.333-0.524 0.524s-0.257 0.4-0.333 0.61h-0.029v-1.448h-1.086c0.010 0.562 0.029 1.029 0.038 1.381 0.019 0.352 0.029 0.705 0.029 1.048v5.352h1.095v-4.39c0-0.267 0.048-0.543 0.143-0.829s0.238-0.562 0.438-0.81c0.2-0.248 0.448-0.457 0.752-0.619 0.295-0.162 0.657-0.238 1.086-0.238 0.276 0 0.486 0.029 0.629 0.086l0.219-1.086c-0.229-0.067-0.505-0.095-0.819-0.095-0.352 0.010-0.657 0.057-0.924 0.143z"></path>
<path d="M98.724 20.19v-3.476c0-0.476-0.076-0.886-0.229-1.229s-0.362-0.629-0.619-0.857c-0.257-0.229-0.562-0.4-0.905-0.505-0.352-0.114-0.714-0.162-1.086-0.162-1.467 0-2.562 0.381-3.295 1.133l0.667 0.781c0.676-0.61 1.467-0.914 2.381-0.914 1.333 0 2 0.667 2 2.010v0.2h-0.552c-0.467 0-0.981 0.019-1.543 0.067s-1.086 0.152-1.581 0.333c-0.495 0.181-0.905 0.448-1.229 0.81s-0.495 0.857-0.495 1.486c0 0.381 0.076 0.705 0.229 0.99s0.352 0.524 0.6 0.714c0.248 0.19 0.533 0.343 0.857 0.429 0.324 0.095 0.657 0.143 1 0.143 0.629 0 1.171-0.114 1.61-0.343s0.819-0.6 1.143-1.124h0.029c0 0.21 0.010 0.429 0.029 0.648s0.038 0.429 0.076 0.619h1.067c-0.029-0.21-0.067-0.476-0.095-0.81-0.038-0.333-0.057-0.648-0.057-0.943zM97.629 18.619c0 0.343-0.048 0.667-0.143 0.971s-0.238 0.571-0.438 0.8c-0.2 0.229-0.448 0.41-0.743 0.543s-0.638 0.2-1.038 0.2c-0.219 0-0.438-0.029-0.657-0.076s-0.41-0.133-0.59-0.248c-0.181-0.114-0.314-0.267-0.429-0.448-0.105-0.181-0.162-0.4-0.162-0.657 0-0.39 0.133-0.695 0.41-0.914s0.6-0.381 0.981-0.495c0.381-0.105 0.781-0.171 1.2-0.2s0.762-0.038 1.038-0.038h0.562v0.562z"></path>
<path d="M102.267 15.81c0.257-0.276 0.562-0.495 0.924-0.648s0.771-0.229 1.219-0.219c0.429 0 0.819 0.095 1.152 0.295 0.343 0.2 0.6 0.448 0.79 0.733l0.895-0.686c-0.39-0.457-0.829-0.79-1.314-1.010s-1-0.333-1.533-0.343c-0.629-0.010-1.2 0.086-1.714 0.295s-0.943 0.495-1.305 0.857c-0.362 0.362-0.638 0.8-0.819 1.305-0.19 0.505-0.286 1.048-0.286 1.638s0.095 1.133 0.286 1.638c0.19 0.505 0.467 0.943 0.819 1.305 0.362 0.362 0.8 0.648 1.305 0.857 0.514 0.21 1.086 0.305 1.714 0.295 0.533-0.010 1.038-0.124 1.533-0.343 0.486-0.219 0.924-0.552 1.314-1.010l-0.895-0.686c-0.19 0.286-0.448 0.533-0.79 0.733s-0.724 0.295-1.152 0.295c-0.457 0.010-0.867-0.057-1.219-0.219-0.362-0.152-0.667-0.371-0.924-0.648s-0.448-0.61-0.581-0.99c-0.133-0.381-0.2-0.8-0.2-1.238 0-0.448 0.067-0.857 0.2-1.238 0.124-0.362 0.324-0.695 0.581-0.971z"></path>
<path d="M112.695 21.048c-0.2 0.057-0.39 0.086-0.581 0.086-0.162 0-0.314-0.019-0.457-0.057s-0.257-0.105-0.362-0.21c-0.095-0.095-0.181-0.238-0.229-0.429-0.057-0.181-0.086-0.419-0.086-0.705v-4.59h2.248v-1h-2.248v-2.2h-1.095v2.2h-1.648v1h1.648v4.905c0 0.429 0.057 0.781 0.181 1.048s0.276 0.476 0.467 0.629c0.19 0.152 0.4 0.257 0.619 0.314 0.229 0.057 0.448 0.086 0.657 0.086 0.581 0 1.067-0.095 1.476-0.286l-0.048-1.019c-0.162 0.105-0.343 0.181-0.543 0.229z"></path>
<path d="M115.133 14.152h1.095v7.781h-1.095v-7.781z"></path>
<path d="M116.238 10.581c-0.162-0.152-0.352-0.229-0.552-0.229s-0.381 0.076-0.552 0.229c-0.162 0.152-0.248 0.343-0.248 0.571s0.086 0.429 0.248 0.571c0.162 0.152 0.352 0.229 0.552 0.229s0.381-0.076 0.552-0.229c0.162-0.152 0.248-0.343 0.248-0.571s-0.086-0.419-0.248-0.571z"></path>
<path d="M121.733 20.705h-0.029l-2.495-6.552h-1.295l3.162 7.781h1.229l3.162-7.781h-1.248z"></path>
<path d="M133.629 17.838c0-0.533-0.086-1.038-0.248-1.505s-0.41-0.886-0.724-1.229c-0.314-0.352-0.705-0.629-1.171-0.838s-0.99-0.314-1.581-0.314c-0.552 0-1.067 0.105-1.543 0.305-0.476 0.21-0.895 0.495-1.248 0.857s-0.629 0.8-0.829 1.295c-0.2 0.495-0.295 1.038-0.295 1.629s0.105 1.133 0.305 1.629c0.21 0.495 0.486 0.933 0.838 1.295s0.781 0.648 1.276 0.857c0.495 0.21 1.029 0.305 1.61 0.305 0.648 0 1.248-0.124 1.81-0.381s1.076-0.676 1.543-1.267l-0.848-0.695c-0.219 0.352-0.543 0.667-0.971 0.943s-0.933 0.41-1.524 0.41c-0.39 0-0.752-0.076-1.086-0.219s-0.629-0.343-0.886-0.59c-0.257-0.248-0.457-0.543-0.619-0.886-0.152-0.343-0.248-0.714-0.286-1.095h6.486v-0.505zM127.181 17.438c0-0.324 0.076-0.629 0.229-0.933 0.152-0.295 0.352-0.562 0.6-0.8 0.248-0.229 0.543-0.419 0.876-0.562s0.676-0.21 1.029-0.21c0.8 0 1.419 0.229 1.867 0.686s0.667 1.067 0.667 1.81h-5.267z"></path>
<path d="M38.419 31.81l12.133-12.057-4.657-2.876-7.476 7.4z"></path>
<path d="M38.457 0.19v7.533l12.095 12.029 3.79-3.762z"></path>
</svg>
