<svg version="1.1" xmlns="http://www.w3.org/2000/svg" xmlns:xlink="http://www.w3.org/1999/xlink" viewBox="0 0 30 30">
<path d="M15 0.37c-8.283 0-15 6.715-15 15 0 6.627 4.298 12.25 10.258 14.233 0.75 0.139 1.025-0.325 1.025-0.722 0-0.358-0.014-1.539-0.020-2.793-4.173 0.908-5.054-1.77-5.054-1.77-0.682-1.734-1.665-2.195-1.665-2.195-1.361-0.931 0.103-0.912 0.103-0.912 1.506 0.106 2.299 1.546 2.299 1.546 1.338 2.293 3.509 1.63 4.365 1.247 0.134-0.969 0.523-1.631 0.952-2.006-3.332-0.379-6.834-1.666-6.834-7.413 0-1.638 0.586-2.976 1.546-4.026-0.156-0.378-0.67-1.903 0.145-3.97 0 0 1.26-0.403 4.126 1.538 1.196-0.332 2.48-0.499 3.755-0.505 1.274 0.006 2.559 0.172 3.757 0.505 2.863-1.941 4.121-1.538 4.121-1.538 0.817 2.066 0.303 3.592 0.148 3.97 0.962 1.050 1.544 2.389 1.544 4.026 0 5.761-3.509 7.030-6.849 7.401 0.538 0.466 1.017 1.378 1.017 2.778 0 2.007-0.017 3.622-0.017 4.116 0 0.399 0.27 0.867 1.030 0.72 5.957-1.986 10.249-7.606 10.249-14.231 0-8.285-6.716-15-15-15z"></path>
</svg>
