<svg version="1.1" xmlns="http://www.w3.org/2000/svg" xmlns:xlink="http://www.w3.org/1999/xlink" viewBox="0 0 30 30">
<path d="M15 3.75c-6.213 0-11.25 5.037-11.25 11.25s5.037 11.25 11.25 11.25c0.76 0 1.503-0.076 2.221-0.219-0.289-0.138-0.321-1.177-0.035-1.769 0.319-0.659 1.318-2.329 0.33-2.889s-0.714-0.813-1.318-1.461-0.357-0.746-0.396-0.912c-0.132-0.571 0.582-1.428 0.615-1.516s0.033-0.417 0.022-0.516-0.45-0.363-0.56-0.374-0.165 0.176-0.319 0.187-0.824-0.406-0.967-0.516-0.209-0.374-0.406-0.571-0.22-0.044-0.527-0.165-1.296-0.483-2.054-0.791-0.824-0.739-0.835-1.044-0.461-0.747-0.673-1.066c-0.211-0.319-0.25-0.758-0.327-0.659s0.396 1.252 0.319 1.285-0.242-0.319-0.461-0.604 0.231-0.132-0.472-1.516 0.22-2.090 0.264-2.813 0.593 0.264 0.308-0.198 0.022-1.428-0.198-1.78-1.472 0.396-1.472 0.396c0.033-0.341 1.099-0.923 1.868-1.461s1.239-0.121 1.857 0.077 0.659 0.132 0.45-0.066 0.088-0.297 0.571-0.22 0.615 0.659 1.351 0.604 0.077 0.143 0.176 0.33-0.11 0.165-0.593 0.494 0.011 0.33 0.868 0.956 0.593-0.417 0.505-0.879 0.626-0.099 0.626-0.099c0.527 0.352 0.43 0.019 0.814 0.14s1.427 1.002 1.427 1.002c-1.307 0.714-0.483 0.791-0.264 0.956s-0.45 0.483-0.45 0.483c-0.275-0.275-0.319 0.011-0.494 0.11s-0.011 0.352-0.011 0.352c-0.909 0.143-0.703 1.099-0.692 1.329s-0.582 0.582-0.736 0.912 0.396 1.044 0.11 1.088-0.571-1.077-2.109-0.659c-0.464 0.126-1.494 0.659-0.945 1.747s1.461-0.308 1.769-0.154-0.088 0.846-0.022 0.857 0.868 0.030 0.912 0.967 1.219 0.857 1.472 0.879 1.099-0.692 1.219-0.725 0.604-0.439 1.659 0.165 1.593 0.516 1.956 0.769 0.11 0.758 0.45 0.923 1.703-0.055 2.043 0.505-1.406 3.373-1.956 3.68-0.802 1.011-1.351 1.461-1.318 1.008-2.043 1.439c-0.642 0.382-0.757 1.065-1.043 1.281 5.035-1.118 8.8-5.611 8.8-10.982 0-6.213-5.037-11.25-11.25-11.25zM17.637 14.308c-0.154 0.044-0.472 0.33-1.252-0.132s-1.318-0.374-1.384-0.45c0 0-0.066-0.187 0.275-0.22 0.699-0.068 1.582 0.648 1.78 0.659s0.297-0.198 0.648-0.084c0.352 0.113 0.088 0.183-0.066 0.227zM13.956 4.871c-0.077-0.056 0.063-0.12 0.147-0.231 0.048-0.064 0.012-0.17 0.073-0.231 0.165-0.165 0.978-0.396 0.819 0.055s-0.918 0.494-1.039 0.406zM15.923 6.299c-0.275-0.011-0.921-0.079-0.802-0.198 0.464-0.461-0.176-0.593-0.571-0.626s-0.56-0.253-0.363-0.275 0.989 0.011 1.121 0.121 0.846 0.396 0.89 0.604 0 0.385-0.275 0.374zM18.307 6.222c-0.22 0.176-1.325-0.631-1.538-0.813-0.923-0.791-1.417-0.527-1.611-0.659s-0.125-0.308 0.172-0.571 1.132 0.088 1.615 0.143 1.044 0.428 1.055 0.872c0.011 0.444 0.527 0.852 0.308 1.028z"></path>
</svg>
