<svg version="1.1" xmlns="http://www.w3.org/2000/svg" xmlns:xlink="http://www.w3.org/1999/xlink" viewBox="0 0 30 30">
<path d="M15 0.6c-7.953 0-14.4 6.447-14.4 14.4s6.447 14.4 14.4 14.4c7.951 0 14.4-6.447 14.4-14.401 0-7.951-6.449-14.399-14.4-14.399zM14.774 23.399h-0.076c-1.173-0.035-2.001-0.9-1.966-2.056 0.033-1.137 0.88-1.964 2.015-1.964l0.069 0.003c1.206 0.035 2.025 0.891 1.99 2.080-0.035 1.14-0.867 1.936-2.031 1.936zM19.71 13.602c-0.276 0.39-0.882 0.879-1.647 1.475l-0.843 0.58c-0.462 0.36-0.741 0.7-0.845 1.032-0.084 0.261-0.123 0.331-0.13 0.864v0.135h-3.218l0.009-0.273c0.040-1.116 0.067-1.776 0.531-2.32 0.728-0.852 2.333-1.887 2.4-1.93 0.231-0.172 0.425-0.369 0.569-0.58 0.337-0.466 0.486-0.832 0.486-1.19 0-0.501-0.147-0.965-0.44-1.374-0.282-0.399-0.818-0.597-1.591-0.597-0.768 0-1.295 0.243-1.608 0.744-0.324 0.511-0.488 1.050-0.488 1.6v0.138h-3.316l0.006-0.144c0.085-2.030 0.811-3.492 2.152-4.345 0.845-0.541 1.896-0.816 3.121-0.816 1.602 0 2.958 0.39 4.023 1.158 1.081 0.779 1.629 1.945 1.629 3.466-0.001 0.85-0.27 1.65-0.801 2.377z"></path>
</svg>
