<svg xmlns="http://www.w3.org/2000/svg" viewBox="0 0 30 30"><path d="M15 2.7c4 0 4.5 0 6.1 0.1 1.5 0.1 2.3 0.3 2.8 0.5 0.7 0.3 1.2 0.6 1.7 1.1 0.5 0.5 0.9 1 1.1 1.7 0.2 0.5 0.5 1.3 0.5 2.8 0.1 1.6 0.1 2.1 0.1 6.1s0 4.5-0.1 6.1c-0.1 1.5-0.3 2.3-0.5 2.8-0.3 0.7-0.6 1.2-1.1 1.7-0.5 0.5-1 0.9-1.7 1.1-0.5 0.2-1.3 0.5-2.8 0.5-1.6 0.1-2.1 0.1-6.1 0.1s-4.5 0-6.1-0.1c-1.5-0.1-2.3-0.3-2.8-0.5-0.7-0.3-1.2-0.6-1.7-1.1-0.5-0.5-0.8-1-1.1-1.7-0.2-0.5-0.5-1.3-0.5-2.8-0.1-1.6-0.1-2.1-0.1-6.1s0-4.5 0.1-6.1c0.1-1.5 0.3-2.3 0.5-2.8 0.3-0.7 0.6-1.2 1.1-1.7 0.5-0.5 1-0.8 1.7-1.1 0.5-0.2 1.3-0.5 2.8-0.5 1.6-0.1 2.1-0.1 6.1-0.1zM15 0c-4.1 0-4.6 0-6.2 0.1-1.6 0.1-2.7 0.3-3.6 0.7-1 0.4-1.8 0.9-2.7 1.7-0.8 0.8-1.3 1.7-1.7 2.7-0.4 1-0.6 2-0.7 3.6-0.1 1.6-0.1 2.1-0.1 6.2s0 4.6 0.1 6.2c0.1 1.6 0.3 2.7 0.7 3.6 0.4 1 0.9 1.8 1.7 2.7 0.8 0.8 1.7 1.3 2.7 1.7 1 0.4 2 0.6 3.6 0.7 1.6 0.1 2.1 0.1 6.2 0.1s4.6 0 6.2-0.1c1.6-0.1 2.7-0.3 3.6-0.7 1-0.4 1.8-0.9 2.7-1.7s1.3-1.7 1.7-2.7c0.4-1 0.6-2 0.7-3.6 0.1-1.6 0.1-2.1 0.1-6.2s0-4.6-0.1-6.2c-0.1-1.6-0.3-2.7-0.7-3.6-0.4-1-0.9-1.8-1.7-2.7-0.8-0.8-1.7-1.3-2.7-1.7-1-0.4-2-0.6-3.6-0.7-1.6-0.1-2.1-0.1-6.2-0.1v0z"/><path d="M15 7.3c-4.3 0-7.7 3.5-7.7 7.7s3.5 7.7 7.7 7.7 7.7-3.5 7.7-7.7c0-4.3-3.5-7.7-7.7-7.7zM15 20c-2.8 0-5-2.2-5-5s2.2-5 5-5c2.8 0 5 2.2 5 5s-2.2 5-5 5z"/><path d="M24.8 7c0 1-0.8 1.8-1.8 1.8s-1.8-0.8-1.8-1.8c0-1 0.8-1.8 1.8-1.8s1.8 0.8 1.8 1.8z"/></svg>