<svg version="1.1" xmlns="http://www.w3.org/2000/svg" xmlns:xlink="http://www.w3.org/1999/xlink" viewBox="0 0 30 30">
<path d="M3.75 6.25h22.5q0.518 0 0.884 0.366t0.366 0.884-0.366 0.884-0.884 0.366h-22.5q-0.518 0-0.884-0.366t-0.366-0.884 0.366-0.884 0.884-0.366zM3.75 21.25h22.5q0.518 0 0.884 0.366t0.366 0.884-0.366 0.884-0.884 0.366h-22.5q-0.518 0-0.884-0.366t-0.366-0.884 0.366-0.884 0.884-0.366zM3.75 16.25h22.5q0.518 0 0.884 0.366t0.366 0.884-0.366 0.884-0.884 0.366h-22.5q-0.518 0-0.884-0.366t-0.366-0.884 0.366-0.884 0.884-0.366zM3.75 11.25h22.5q0.518 0 0.884 0.366t0.366 0.884-0.366 0.884-0.884 0.366h-22.5q-0.518 0-0.884-0.366t-0.366-0.884 0.366-0.884 0.884-0.366z"></path>
</svg>
