<svg version="1.1" xmlns="http://www.w3.org/2000/svg" xmlns:xlink="http://www.w3.org/1999/xlink" viewBox="0 0 30 30">
<path d="M5 1.25h8.75q0.518 0 0.884 0.366t0.366 0.884-0.366 0.884-0.884 0.366h-8.75q-0.518 0-0.884 0.366t-0.366 0.884v20q0 0.518 0.366 0.884t0.884 0.366h20q0.518 0 0.884-0.366t0.366-0.884v-8.75q0-0.518 0.366-0.884t0.884-0.366 0.884 0.366 0.366 0.884v8.75q0 1.553-1.099 2.651t-2.651 1.099h-20q-1.553 0-2.651-1.099t-1.099-2.651v-20q0-1.553 1.099-2.651t2.651-1.099zM20 1.25h7.5q0.518 0 0.884 0.366t0.366 0.884v7.5q0 0.518-0.366 0.884t-0.884 0.366-0.884-0.366-0.366-0.884v-4.482l-10.371 10.371q-0.361 0.361-0.879 0.361-0.537 0-0.894-0.356t-0.356-0.894q0-0.518 0.361-0.879l10.371-10.371h-4.482q-0.518 0-0.884-0.366t-0.366-0.884 0.366-0.884 0.884-0.366z"></path>
</svg>
