<svg version="1.1" xmlns="http://www.w3.org/2000/svg" xmlns:xlink="http://www.w3.org/1999/xlink" viewBox="0 0 32 32">
<path d="M8.237 4.486c0.035 0.035 0.070 0.070 0.070 0.105 0.491 0.806 0.946 1.612 1.402 2.418 0.386 0.701 0.806 1.402 1.227 2.103 0 0.035 0.035 0.035 0.035 0.070 0 0 0 0-0.035 0.035-0.736 0.631-1.367 1.227-2.033 1.787-1.157 0.981-1.402 2.278-0.666 3.68 2.103 3.961 5.152 7.010 9.113 9.113 0.526 0.28 1.016 0.421 1.507 0.421 0.526 0 1.332-0.175 2.068-1.051 0.386-0.456 0.771-0.911 1.192-1.367 0.21-0.21 0.386-0.456 0.596-0.666 0.035-0.035 0.070-0.070 0.070-0.070 0.035 0 0.105 0.035 0.175 0.105 1.297 0.806 2.734 1.612 4.451 2.559 0.070 0.035 0.14 0.070 0.175 0.105 0 0.035 0 0.105-0.035 0.21-0.386 2.243-2.383 3.61-5.328 3.61h-0.070c-2.208-0.28-4.627-1.192-6.694-2.559-5.503-3.715-8.973-8.061-10.62-13.459-0.666-2.173-0.386-4.066 0.841-5.993 0.491-0.771 1.227-1.087 2.559-1.157zM8.482 3.154c0 0 0 0 0 0-1.542 0.035-2.979 0.315-3.926 1.788-1.472 2.208-1.788 4.521-1.016 7.115 1.928 6.134 5.958 10.585 11.181 14.055 2.348 1.542 5.047 2.489 7.325 2.769 0.035 0 0.105 0 0.14 0 3.75-0.035 6.169-1.893 6.659-4.697 0.14-0.841-0.105-1.297-0.806-1.682-1.472-0.806-2.944-1.647-4.381-2.524-0.315-0.21-0.631-0.315-0.911-0.315-0.386 0-0.701 0.175-1.016 0.561-0.596 0.701-1.227 1.367-1.788 2.068-0.315 0.386-0.666 0.561-1.016 0.561-0.28 0-0.561-0.105-0.911-0.28-3.785-1.963-6.624-4.802-8.622-8.552-0.421-0.806-0.351-1.437 0.351-2.033s1.402-1.192 2.068-1.787c0.561-0.526 0.666-1.051 0.245-1.752-0.911-1.507-1.717-3.049-2.664-4.556-0.175-0.315-0.596-0.736-0.911-0.736v0z"></path>
</svg>
