<svg version="1.1" xmlns="http://www.w3.org/2000/svg" xmlns:xlink="http://www.w3.org/1999/xlink" viewBox="0 0 24 30">
<path d="M23.571 20.759c0 0.603-0.268 1.775-0.519 2.327-0.352 0.82-1.289 1.356-2.042 1.775-0.988 0.536-1.992 0.854-3.114 0.854-1.557 0-2.963-0.636-4.386-1.155-1.021-0.368-2.009-0.82-2.93-1.39-2.846-1.758-6.278-5.19-8.036-8.036-0.569-0.921-1.021-1.908-1.39-2.93-0.519-1.423-1.155-2.829-1.155-4.386 0-1.122 0.318-2.126 0.854-3.114 0.419-0.753 0.954-1.691 1.775-2.042 0.552-0.251 1.724-0.519 2.327-0.519 0.117 0 0.234 0 0.352 0.050 0.352 0.117 0.72 0.938 0.887 1.272 0.536 0.954 1.055 1.925 1.607 2.863 0.268 0.435 0.77 0.971 0.77 1.49 0 1.021-3.030 2.511-3.030 3.415 0 0.452 0.419 1.038 0.653 1.44 1.691 3.047 3.8 5.156 6.847 6.847 0.402 0.234 0.988 0.653 1.44 0.653 0.904 0 2.394-3.030 3.415-3.030 0.519 0 1.055 0.502 1.49 0.77 0.938 0.552 1.908 1.071 2.863 1.607 0.335 0.167 1.155 0.536 1.272 0.887 0.050 0.117 0.050 0.234 0.050 0.352z"></path>
</svg>
