<svg version="1.1" xmlns="http://www.w3.org/2000/svg" xmlns:xlink="http://www.w3.org/1999/xlink" viewBox="0 0 30 30">
<path d="M6.592 13.125c3.624 0 6.563 2.938 6.563 6.563s-2.938 6.563-6.563 6.563-6.563-2.938-6.563-6.563l-0.029-0.938c0-7.249 5.876-13.125 13.125-13.125v3.75c-2.504 0-4.858 0.975-6.629 2.746-0.341 0.341-0.652 0.704-0.933 1.085 0.335-0.053 0.679-0.080 1.028-0.080zM23.467 13.125c3.624 0 6.563 2.938 6.563 6.563s-2.938 6.563-6.563 6.563-6.563-2.938-6.563-6.563l-0.029-0.938c0-7.249 5.876-13.125 13.125-13.125v3.75c-2.504 0-4.858 0.975-6.629 2.746-0.341 0.341-0.652 0.704-0.933 1.085 0.335-0.053 0.679-0.080 1.028-0.080z"></path>
</svg>
