


<svg version="1.1" xmlns="http://www.w3.org/2000/svg" xmlns:xlink="http://www.w3.org/1999/xlink" viewBox="0 0 30 30">
<path d="M5 1.25h20q1.553 0 2.651 1.099t1.099 2.651v20q0 1.553-1.099 2.651t-2.651 1.099h-20q-1.553 0-2.651-1.099t-1.099-2.651v-20q0-1.553 1.099-2.651t2.651-1.099zM25 3.75h-20q-0.518 0-0.884 0.366t-0.366 0.884v20q0 0.518 0.366 0.884t0.884 0.366h20q0.518 0 0.884-0.366t0.366-0.884v-20q0-0.518-0.366-0.884t-0.884-0.366zM18.535 10.205q0.518 0 0.889 0.371t0.371 0.889-0.371 0.889l-2.656 2.646 2.656 2.646q0.371 0.371 0.371 0.889t-0.371 0.884-0.889 0.366-0.879-0.361l-2.656-2.656-2.656 2.656q-0.352 0.361-0.879 0.361-0.537 0-0.894-0.356t-0.356-0.894q0-0.527 0.361-0.889l2.656-2.646-2.656-2.646q-0.361-0.361-0.361-0.889 0-0.518 0.366-0.889t0.884-0.371q0.527 0 0.879 0.371l2.656 2.656 2.656-2.656q0.371-0.371 0.879-0.371z"></path>
</svg>
