<svg version="1.1" xmlns="http://www.w3.org/2000/svg" xmlns:xlink="http://www.w3.org/1999/xlink" viewBox="0 0 30 30">
<path d="M5 1.25h20q1.553 0 2.651 1.099t1.099 2.651v20q0 1.553-1.099 2.651t-2.651 1.099h-20q-1.553 0-2.651-1.099t-1.099-2.651v-20q0-1.553 1.099-2.651t2.651-1.099zM25 3.75h-20q-0.518 0-0.884 0.366t-0.366 0.884v20q0 0.518 0.366 0.884t0.884 0.366h20q0.518 0 0.884-0.366t0.366-0.884v-20q0-0.518-0.366-0.884t-0.884-0.366zM10 13.75h10q0.518 0 0.884 0.366t0.366 0.884-0.366 0.884-0.884 0.366h-10q-0.518 0-0.884-0.366t-0.366-0.884 0.366-0.884 0.884-0.366z"></path>
</svg>
