<svg xmlns="http://www.w3.org/2000/svg" viewBox="0 0 30 30"><path d="M30 6.6c-1.1 0.5-2.3 0.8-3.5 1 1.3-0.8 2.2-2 2.7-3.4-1.2 0.7-2.5 1.2-3.9 1.5-1.1-1.2-2.7-1.9-4.5-1.9-3.4 0-6.2 2.8-6.2 6.2 0 0.5 0.1 0.9 0.2 1.4-5.1-0.3-9.6-2.7-12.7-6.4-0.5 0.9-0.8 2-0.8 3.1 0 2.1 1.1 4 2.7 5.1-1 0-2-0.3-2.8-0.8 0 0 0 0.1 0 0.1 0 3 2.1 5.5 4.9 6-0.5 0.1-1.1 0.2-1.6 0.2-0.4 0-0.8 0-1.2-0.1 0.8 2.4 3.1 4.2 5.7 4.3-2.1 1.7-4.8 2.6-7.6 2.6-0.5 0-1 0-1.5-0.1 2.7 1.8 6 2.8 9.4 2.8 11.3 0 17.5-9.4 17.5-17.5 0-0.3 0-0.5 0-0.8 1.2-0.9 2.2-1.9 3.1-3.2z"/></svg>