<svg version="1.1" xmlns="http://www.w3.org/2000/svg" xmlns:xlink="http://www.w3.org/1999/xlink" viewBox="0 0 30 30">
<path d="M28.125 18.139v2.486h-2.486l-3.139-3.139-3.139 3.139h-2.486v-2.486l3.139-3.139-3.139-3.139v-2.486h2.486l3.139 3.139 3.139-3.139h2.486v2.486l-3.139 3.139 3.139 3.139z"></path>
<path d="M12.188 28.125c-0.244 0-0.484-0.095-0.663-0.275l-7.225-7.225h-3.362c-0.518 0-0.938-0.42-0.938-0.938v-9.375c0-0.518 0.42-0.938 0.938-0.938h3.362l7.225-7.225c0.268-0.268 0.671-0.348 1.022-0.203s0.579 0.487 0.579 0.866v24.375c0 0.379-0.228 0.721-0.579 0.866-0.116 0.048-0.238 0.071-0.359 0.071z"></path>
</svg>
