


<svg version="1.1" xmlns="http://www.w3.org/2000/svg" xmlns:xlink="http://www.w3.org/1999/xlink" viewBox="0 0 30 30">
<path d="M21.080 24.361c-0.36 0-0.72-0.137-0.994-0.412-0.549-0.549-0.549-1.44 0-1.989 3.838-3.838 3.838-10.083 0-13.921-0.549-0.549-0.549-1.44 0-1.989s1.44-0.549 1.989 0c2.39 2.39 3.707 5.569 3.707 8.949s-1.316 6.559-3.707 8.949c-0.275 0.275-0.634 0.412-0.994 0.412v0zM16.085 21.71c-0.36 0-0.72-0.137-0.994-0.412-0.549-0.549-0.549-1.439 0-1.989 2.376-2.376 2.376-6.242 0-8.618-0.549-0.549-0.549-1.44 0-1.989s1.44-0.549 1.989 0c3.473 3.473 3.473 9.123 0 12.595-0.275 0.274-0.634 0.412-0.994 0.412z"></path>
<path d="M12.188 28.125c-0.244 0-0.484-0.095-0.663-0.275l-7.225-7.225h-3.362c-0.518 0-0.938-0.42-0.938-0.938v-9.375c0-0.518 0.42-0.938 0.938-0.938h3.362l7.225-7.225c0.268-0.268 0.671-0.348 1.022-0.203s0.579 0.487 0.579 0.866v24.375c0 0.379-0.228 0.721-0.579 0.866-0.116 0.048-0.238 0.071-0.359 0.071z"></path>
</svg>
