<svg version="1.1" xmlns="http://www.w3.org/2000/svg" xmlns:xlink="http://www.w3.org/1999/xlink" viewBox="0 0 30 30">
<path d="M12.5 1.25q2.285 0 4.37 0.894t3.589 2.397 2.397 3.589 0.894 4.37q0 1.963-0.64 3.76t-1.821 3.262l7.1 7.090q0.361 0.361 0.361 0.889 0 0.537-0.356 0.894t-0.894 0.356q-0.527 0-0.889-0.361l-7.090-7.1q-1.465 1.182-3.262 1.821t-3.76 0.64q-2.285 0-4.37-0.894t-3.589-2.397-2.397-3.589-0.894-4.37 0.894-4.37 2.397-3.589 3.589-2.397 4.37-0.894zM12.5 3.75q-1.777 0-3.398 0.693t-2.793 1.865-1.865 2.793-0.693 3.398 0.693 3.398 1.865 2.793 2.793 1.865 3.398 0.693 3.398-0.693 2.793-1.865 1.865-2.793 0.693-3.398-0.693-3.398-1.865-2.793-2.793-1.865-3.398-0.693zM8.75 11.25h7.5q0.518 0 0.884 0.366t0.366 0.884-0.366 0.884-0.884 0.366h-7.5q-0.518 0-0.884-0.366t-0.366-0.884 0.366-0.884 0.884-0.366z"></path>
</svg>
