<?xml version="1.0" standalone="no"?>
<!DOCTYPE svg PUBLIC "-//W3C//DTD SVG 20010904//EN"
 "http://www.w3.org/TR/2001/REC-SVG-20010904/DTD/svg10.dtd">
<svg version="1.0" xmlns="http://www.w3.org/2000/svg"
 width="16.000000pt" height="16.000000pt" viewBox="0 0 16.000000 16.000000"
 preserveAspectRatio="xMidYMid meet">
<metadata>
Created by potrace 1.11, written by Peter Selinger 2001-2013
</metadata>
<g transform="translate(0.000000,16.000000) scale(0.000800,-0.000800)"
fill="#000000" stroke="none">
<path d="M5189 19602 c0 -26 -1 -1060 -1 -2299 l0 -2252 3656 -3657 c2011
-2011 3656 -3657 3656 -3659 0 -4 -229 137 -692 426 -136 85 -295 183 -352
219 -58 36 -163 101 -233 145 -70 44 -172 107 -226 140 -132 81 -487 302 -917
570 -195 121 -360 224 -366 228 -12 7 -484 -461 -3193 -3165 l-1353 -1352 0
-2294 c0 -1261 2 -2295 4 -2296 1 -2 2176 2169 4831 4824 l4828 4827 -4820
4820 -4821 4821 -1 -46z"/>
</g>
</svg>
