<svg xmlns="http://www.w3.org/2000/svg" viewBox="0 0 50 50"><style type="text/css">  
	.st0{fill:#ffffff;}
	.st1{fill:#000000;}
</style><polygon class="st0" points="43.5 31.8 43.5 27.2 39.1 27.2 39.1 31.8 34.4 31.8 34.4 36.2 39.1 36.2 39.1 40.9 43.5 40.9 43.5 36.2 48.2 36.2 48.2 31.8 "/><path class="st1" d="M22.4 7.5C13 7.5 5.3 15.2 5.3 24.7S13 41.8 22.4 41.8c3.3 0 6.4-1 9-2.6 -0.8-1.5-1.3-3.3-1.3-5.2 0-5.5 4-10.1 9.3-11C38.6 14.4 31.3 7.5 22.4 7.5zM22.2 11.6c1.8 0 3.2 1.4 3.2 3.2 0 1.8-1.4 3.2-3.2 3.2 -1.7 0-3.2-1.4-3.2-3.2C19 13 20.5 11.6 22.2 11.6zM31.4 20.6l-5.9 2.5 0 4.6 2.9 7.4c0.1 0.5 0 1-0.2 1.4 -0.3 0.4-0.7 0.7-1.1 0.8 -0.5 0.1-1 0-1.4-0.2 -0.4-0.2-0.7-0.6-0.8-1l-2.7-5.9 -2.5 6.1c-0.2 0.5-0.5 0.8-1 1 -0.2 0.1-0.5 0.1-0.7 0.1 -0.2 0-0.5 0-0.7-0.1 -0.5-0.2-0.8-0.5-1-1C16 36 16 35.4 16.2 35l2.6-7.2v-4.7l-5.5-2.5c-0.4-0.1-0.7-0.3-1-0.6 -0.3-0.4-0.5-0.8-0.4-1.3 0-0.5 0.3-0.9 0.6-1.2 0.4-0.3 0.8-0.5 1.3-0.4l0.1 0 7.1 2.6h2.5l7.6-2.6 0.1 0c0.5 0 0.9 0.1 1.3 0.5 0.3 0.3 0.5 0.8 0.6 1.2C33 19.7 32.3 20.5 31.4 20.6z"/><path class="st0" d="M31.4 39.2c-2.6 1.6-5.7 2.6-9 2.6 -9.4 0-17.1-7.7-17.1-17.1S13 7.5 22.4 7.5c8.9 0 16.2 6.8 17 15.5 0.6-0.1 1.2-0.2 1.9-0.2 0.6 0 1.2 0 1.7 0.1C42.2 12.4 33.3 4 22.4 4 11 4 1.7 13.3 1.7 24.7S11 45.4 22.4 45.4c4.1 0 8-1.2 11.2-3.3C32.7 41.2 32 40.3 31.4 39.2z"/><path class="st0" d="M22.2 18c1.8 0 3.2-1.4 3.2-3.2 0-1.8-1.4-3.2-3.2-3.2 -1.8 0-3.2 1.4-3.2 3.2C19 16.5 20.5 18 22.2 18z"/><path class="st0" d="M31.1 17.1l-0.1 0 -7.6 2.6H21l-7.1-2.6 -0.1 0c-0.5 0-0.9 0.1-1.3 0.4 -0.4 0.3-0.6 0.7-0.6 1.2 0 0.5 0.1 0.9 0.4 1.3 0.3 0.3 0.6 0.5 1 0.6l5.5 2.5v4.7L16.2 35c-0.2 0.5-0.2 1 0.1 1.5 0.2 0.4 0.6 0.8 1 1 0.2 0.1 0.5 0.1 0.7 0.1 0.2 0 0.5 0 0.7-0.1 0.5-0.2 0.8-0.6 1-1l2.5-6.1 2.7 5.9c0.1 0.4 0.4 0.8 0.8 1 0.4 0.3 0.9 0.3 1.4 0.2 0.5-0.1 0.9-0.4 1.1-0.8 0.3-0.4 0.3-0.9 0.2-1.4l-2.9-7.4 0-4.6 5.9-2.5c0.9-0.1 1.6-0.9 1.5-1.8 0-0.5-0.2-0.9-0.6-1.2C32.1 17.2 31.6 17 31.1 17.1z"/></svg>