<svg version="1.1" xmlns="http://www.w3.org/2000/svg" xmlns:xlink="http://www.w3.org/1999/xlink" x="0px" y="0px"
	 viewBox="0 0 200 43" style="enable-background:new 0 0 200 43;"
	 xml:space="preserve" role="img" aria-label="[title]">
	 <title>Home</title>
<g>
	<polygon style="fill:#4F4F4F;" points="179.58,31.861 179.58,41.461 194.945,26.094 189.154,22.304 	"/>
	<polygon style="fill:#4F4F4F;" points="194.947,26.095 194.947,26.095 194.946,26.094 	"/>
	<polyline style="fill:#4F4F4F;" points="199.746,21.295 194.947,26.095 194.947,26.095 199.746,21.295 	"/>
	<polyline style="fill:#4F4F4F;" points="179.617,10.763 179.617,1.163 199.746,21.295 194.947,26.095 194.946,26.093 	"/>
	<polygon style="fill:#4F4F4F;" points="194.947,26.095 194.947,26.095 194.947,26.095 	"/>
	<polygon style="fill:#4F4F4F;" points="194.945,26.094 194.946,26.094 194.945,26.093 	"/>
	<line style="fill:#4F4F4F;" x1="189.152" y1="22.302" x2="189.154" y2="22.304"/>
	<polygon style="fill:#4F4F4F;" points="194.946,26.093 194.945,26.093 194.946,26.094 194.947,26.095 194.947,26.095 	"/>
	<line style="fill:#4F4F4F;" x1="194.945" y1="26.093" x2="194.946" y2="26.093"/>
	<g>
		<path style="fill:#4F4F4F;" d="M27.203,30.705c0,3.733-1.343,6.674-4.03,8.823c-2.687,2.149-6.424,3.224-11.213,3.224
			c-4.411,0-8.314-0.83-11.707-2.489v-8.145c2.789,1.244,5.151,2.121,7.083,2.63c1.933,0.509,3.7,0.764,5.303,0.764
			c1.923,0,3.398-0.367,4.426-1.102c1.027-0.736,1.541-1.829,1.541-3.281c0-0.81-0.226-1.531-0.679-2.163
			c-0.453-0.632-1.117-1.24-1.994-1.824c-0.876-0.584-2.663-1.517-5.359-2.799c-2.526-1.188-4.421-2.328-5.684-3.422
			c-1.263-1.093-2.272-2.365-3.026-3.817c-0.754-1.452-1.131-3.148-1.131-5.09c0-3.658,1.24-6.532,3.719-8.625
			c2.479-2.092,5.905-3.139,10.279-3.139c2.149,0,4.199,0.255,6.151,0.764c1.951,0.509,3.992,1.226,6.122,2.149l-2.827,6.815
			c-2.206-0.905-4.03-1.536-5.472-1.895c-1.442-0.358-2.861-0.537-4.256-0.537c-1.659,0-2.931,0.387-3.817,1.16
			c-0.886,0.773-1.329,1.782-1.329,3.026c0,0.774,0.178,1.447,0.537,2.022c0.358,0.575,0.928,1.131,1.71,1.668
			c0.782,0.537,2.635,1.504,5.557,2.899c3.865,1.848,6.514,3.7,7.946,5.557C26.486,25.733,27.203,28.009,27.203,30.705z"/>
		<path style="fill:#4F4F4F;" d="M34.697,42.186V0.842h8.766v34.104h16.769v7.239H34.697z"/>
		<path style="fill:#4F4F4F;" d="M92.724,42.186l-2.997-9.841H74.655l-2.998,9.841h-9.445L76.804,0.672h10.718l14.648,41.513H92.724z
			 M87.635,24.992c-2.772-8.917-4.333-13.96-4.68-15.129c-0.35-1.169-0.599-2.093-0.75-2.771c-0.623,2.413-2.405,8.38-5.345,17.9
			H87.635z"/>
		<path style="fill:#4F4F4F;" d="M123.321,42.186h-8.765V8.138h-11.227V0.842h31.219v7.296h-11.227V42.186z"/>
		<path style="fill:#4F4F4F;" d="M164.722,42.186h-23.811V0.842h23.811v7.183h-15.044v9.077h13.998v7.183h-13.998v10.661h15.044V42.186z"/>
	</g>
</g>
</svg>
